# xmcd
# Track frame offsets:
# 150
# 19192
# 36975
# 58432
# 76292
# 96335
# 115952
# 134150
# 151330
# 169672
# 188337
# 205160
# 218640
# 235677
# 251595
# 269882
# 286660
# 305825
# 323037
#
# Disc length: 4548 seconds
# Revision: 0
# Processed by: cddbd v1.4PL0 Copyright (c) Steve Scherf et al.
# Submitted via: VisiTrax 2.9.0.147 - For more info visit www.synapsa.com
#
DISCID=1811c213
DTITLE=Various Artist - TMC PrimeCuts 491P
DYEAR=1900
DGENRE=
TTITLE0=Faith Hill - Where Are You For Christmas
TTITLE1=James Taylor - Have Yourself A Merry Little Christmas (Album Version)
TTITLE2=Barbara Streisand feat. Barry Manilow - I Won't Be The One To Let Go (
TTITLE2=Album Version)
TTITLE3=Vanessa Carlton - Pretty Baby
TTITLE4=JC Chase - Blowin' Me Up (With Her Love) [Radio Edit #1]
TTITLE5=Jennifer Lopez feat. LL Cool J - All I Have (Album Version)
TTITLE6=Missy "Misdemeanor" Elliot feat. Ludicris - Gossip Folk (Ammended Vers
TTITLE6=ion)
TTITLE7=Busta Rhymes with Sean Paul feat. Spliff Star - Make It Clap (Remix Ra
TTITLE7=dio Edit)
TTITLE8=Benzino feat. Mario Winans, Lil' Kim and Petey Pablo - Rock The Party (Y
TTITLE8=ellow City Remix - Ammended Version)
TTITLE9=K-Ci and JoJo - This Very Moment (Album Version)
TTITLE10=Blackstreet - Deep (Radio Edit)
TTITLE11=Shania Twain - Up! (Country Album Version)
TTITLE12=Alan Jackson - That'd Be Alright
TTITLE13=All-American Rejects - Swing, Swing (Radio Edit Remix)
TTITLE14=Trapt - Headstrong (Radio Version)
TTITLE15=VonRay - Inside Out
TTITLE16=Amber - Anyway (Men Are From Mars) [DJ Encore Radio Edit]
TTITLE17=Oscar G and Ralph Falcon - Dark Beat (Radio Mix)
TTITLE18=Trin-I-Tee 5:7 - Dance Like Sunday (Album Version)
EXTD=
EXTT0=
EXTT1=
EXTT2=
EXTT3=
EXTT4=
EXTT5=
EXTT6=
EXTT7=
EXTT8=
EXTT9=
EXTT10=
EXTT11=
EXTT12=
EXTT13=
EXTT14=
EXTT15=
EXTT16=
EXTT17=
EXTT18=
PLAYORDER=
